<mxfile host="Electron" agent="Mozilla/5.0 (Windows NT 10.0; Win64; x64) AppleWebKit/537.36 (KHTML, like Gecko) draw.io/26.0.16 Chrome/132.0.6834.196 Electron/34.2.0 Safari/537.36" version="26.0.16">
  <diagram id="COmA8usXFpoPrdtFaqQA" name="system architecture">
    <mxGraphModel dx="784" dy="518" grid="1" gridSize="10" guides="1" tooltips="1" connect="1" arrows="1" fold="1" page="1" pageScale="1" pageWidth="1100" pageHeight="850" math="0" shadow="0">
      <root>
        <mxCell id="0" />
        <mxCell id="1" parent="0" />
        <mxCell id="z1w67Wy-0H0407wE2M5S-72" value="&lt;span&gt;&lt;span style=&quot;color: rgb(0, 0, 0); font-family: Helvetica; font-size: 12px; font-style: normal; font-variant-ligatures: normal; font-variant-caps: normal; font-weight: 400; letter-spacing: normal; orphans: 2; text-indent: 0px; text-transform: none; widows: 2; word-spacing: 0px; -webkit-text-stroke-width: 0px; white-space: normal; text-decoration-thickness: initial; text-decoration-style: initial; text-decoration-color: initial; float: none; display: inline !important;&quot;&gt;Greenhouse (G&lt;/span&gt;&lt;sub style=&quot;forced-color-adjust: none; color: rgb(0, 0, 0); font-family: Helvetica; font-style: normal; font-variant-ligatures: normal; font-variant-caps: normal; font-weight: 400; letter-spacing: normal; orphans: 2; text-indent: 0px; text-transform: none; widows: 2; word-spacing: 0px; -webkit-text-stroke-width: 0px; white-space: normal; text-decoration-thickness: initial; text-decoration-style: initial; text-decoration-color: initial;&quot;&gt;DT&lt;/sub&gt;&lt;span style=&quot;color: rgb(0, 0, 0); font-family: Helvetica; font-size: 12px; font-style: normal; font-variant-ligatures: normal; font-variant-caps: normal; font-weight: 400; letter-spacing: normal; orphans: 2; text-indent: 0px; text-transform: none; widows: 2; word-spacing: 0px; -webkit-text-stroke-width: 0px; white-space: normal; text-decoration-thickness: initial; text-decoration-style: initial; text-decoration-color: initial; float: none; display: inline !important;&quot;&gt;)&lt;/span&gt;&lt;/span&gt;" style="text;whiteSpace=wrap;html=1;fillColor=none;strokeColor=#82b366;align=center;verticalAlign=top;" parent="1" vertex="1">
          <mxGeometry x="160" y="247" width="180" height="75" as="geometry" />
        </mxCell>
        <mxCell id="z1w67Wy-0H0407wE2M5S-45" value="" style="rounded=1;whiteSpace=wrap;html=1;arcSize=7;fillColor=none;strokeColor=#006600;opacity=30;strokeWidth=2;" parent="1" vertex="1">
          <mxGeometry x="160" y="460" width="220" height="126" as="geometry" />
        </mxCell>
        <mxCell id="z1w67Wy-0H0407wE2M5S-1" value="" style="rounded=1;whiteSpace=wrap;html=1;arcSize=7;fillColor=#dae8fc;strokeColor=#6c8ebf;opacity=30;strokeWidth=2;" parent="1" vertex="1">
          <mxGeometry x="160" y="350" width="210" height="90" as="geometry" />
        </mxCell>
        <mxCell id="z1w67Wy-0H0407wE2M5S-24" value="Controller Module" style="rounded=1;whiteSpace=wrap;html=1;arcSize=7;strokeWidth=1;" parent="1" vertex="1">
          <mxGeometry x="170" y="380" width="190" height="30" as="geometry" />
        </mxCell>
        <mxCell id="z1w67Wy-0H0407wE2M5S-30" value="&lt;font&gt;Protocol&lt;sub&gt;A&lt;/sub&gt;&lt;/font&gt;" style="rounded=1;whiteSpace=wrap;html=1;arcSize=7;strokeWidth=1;" parent="1" vertex="1">
          <mxGeometry x="170" y="410" width="80" height="20" as="geometry" />
        </mxCell>
        <mxCell id="z1w67Wy-0H0407wE2M5S-31" value="&lt;font&gt;Protocol&lt;sub&gt;B&lt;/sub&gt;&lt;/font&gt;" style="rounded=1;whiteSpace=wrap;html=1;arcSize=7;strokeWidth=1;" parent="1" vertex="1">
          <mxGeometry x="248" y="410" width="71" height="20" as="geometry" />
        </mxCell>
        <mxCell id="z1w67Wy-0H0407wE2M5S-32" value="&lt;font&gt;&lt;b&gt;....&lt;/b&gt;&lt;/font&gt;" style="rounded=1;whiteSpace=wrap;html=1;arcSize=7;strokeWidth=1;" parent="1" vertex="1">
          <mxGeometry x="318.91" y="410" width="41" height="20" as="geometry" />
        </mxCell>
        <mxCell id="z1w67Wy-0H0407wE2M5S-48" value="&lt;font&gt;Protocol&lt;sub&gt;1&lt;/sub&gt;&lt;/font&gt;" style="rounded=1;whiteSpace=wrap;html=1;arcSize=7;strokeWidth=1;" parent="1" vertex="1">
          <mxGeometry x="170.09" y="360" width="80" height="20" as="geometry" />
        </mxCell>
        <mxCell id="z1w67Wy-0H0407wE2M5S-49" value="&lt;font&gt;Protocol&lt;sub&gt;2&lt;/sub&gt;&lt;/font&gt;" style="rounded=1;whiteSpace=wrap;html=1;arcSize=7;strokeWidth=1;" parent="1" vertex="1">
          <mxGeometry x="248.09" y="360" width="71" height="20" as="geometry" />
        </mxCell>
        <mxCell id="z1w67Wy-0H0407wE2M5S-50" value="&lt;font&gt;&lt;b&gt;....&lt;/b&gt;&lt;/font&gt;" style="rounded=1;whiteSpace=wrap;html=1;arcSize=7;strokeWidth=1;" parent="1" vertex="1">
          <mxGeometry x="319" y="360" width="41" height="20" as="geometry" />
        </mxCell>
        <mxCell id="z1w67Wy-0H0407wE2M5S-51" value="" style="endArrow=classic;startArrow=classic;html=1;rounded=0;entryX=0.871;entryY=1.002;entryDx=0;entryDy=0;entryPerimeter=0;exitX=0.5;exitY=0;exitDx=0;exitDy=0;endSize=4;startSize=4;" parent="1" edge="1">
          <mxGeometry width="50" height="50" relative="1" as="geometry">
            <mxPoint x="348" y="469" as="sourcePoint" />
            <mxPoint x="347.90999999999997" y="439.43999999999994" as="targetPoint" />
          </mxGeometry>
        </mxCell>
        <mxCell id="z1w67Wy-0H0407wE2M5S-52" value="" style="endArrow=classic;startArrow=classic;html=1;rounded=0;exitX=0.5;exitY=0;exitDx=0;exitDy=0;endSize=4;startSize=4;entryX=0.603;entryY=0.998;entryDx=0;entryDy=0;entryPerimeter=0;" parent="1" edge="1">
          <mxGeometry width="50" height="50" relative="1" as="geometry">
            <mxPoint x="278" y="485" as="sourcePoint" />
            <mxPoint x="277.6299999999999" y="439.81999999999994" as="targetPoint" />
          </mxGeometry>
        </mxCell>
        <mxCell id="z1w67Wy-0H0407wE2M5S-53" value="" style="endArrow=classic;startArrow=classic;html=1;rounded=0;endSize=4;startSize=4;" parent="1" edge="1">
          <mxGeometry width="50" height="50" relative="1" as="geometry">
            <mxPoint x="201" y="485" as="sourcePoint" />
            <mxPoint x="201" y="440" as="targetPoint" />
          </mxGeometry>
        </mxCell>
        <mxCell id="z1w67Wy-0H0407wE2M5S-54" value="&lt;span style=&quot;color: rgb(0, 0, 0); font-family: Helvetica; font-size: 12px; font-style: normal; font-variant-ligatures: normal; font-variant-caps: normal; font-weight: 400; letter-spacing: normal; orphans: 2; text-indent: 0px; text-transform: none; widows: 2; word-spacing: 0px; -webkit-text-stroke-width: 0px; white-space: normal; background-color: rgb(251, 251, 251); text-decoration-thickness: initial; text-decoration-style: initial; text-decoration-color: initial; float: none; display: inline !important;&quot;&gt;Plant Controller (GC&lt;/span&gt;&lt;sub style=&quot;forced-color-adjust: none; color: rgb(0, 0, 0); font-family: Helvetica; font-style: normal; font-variant-ligatures: normal; font-variant-caps: normal; font-weight: 400; letter-spacing: normal; orphans: 2; text-indent: 0px; text-transform: none; widows: 2; word-spacing: 0px; -webkit-text-stroke-width: 0px; white-space: normal; background-color: rgb(251, 251, 251); text-decoration-thickness: initial; text-decoration-style: initial; text-decoration-color: initial;&quot;&gt;PT&lt;/sub&gt;&lt;span style=&quot;color: rgb(0, 0, 0); font-family: Helvetica; font-size: 12px; font-style: normal; font-variant-ligatures: normal; font-variant-caps: normal; font-weight: 400; letter-spacing: normal; orphans: 2; text-indent: 0px; text-transform: none; widows: 2; word-spacing: 0px; -webkit-text-stroke-width: 0px; white-space: normal; background-color: rgb(251, 251, 251); text-decoration-thickness: initial; text-decoration-style: initial; text-decoration-color: initial; float: none; display: inline !important;&quot;&gt;)&lt;/span&gt;" style="text;whiteSpace=wrap;html=1;align=center;" parent="1" vertex="1">
          <mxGeometry x="370" y="385" width="110" height="35" as="geometry" />
        </mxCell>
        <mxCell id="z1w67Wy-0H0407wE2M5S-55" value="&lt;span style=&quot;color: rgb(0, 0, 0); font-family: Helvetica; font-size: 12px; font-style: normal; font-variant-ligatures: normal; font-variant-caps: normal; font-weight: 400; letter-spacing: normal; orphans: 2; text-indent: 0px; text-transform: none; widows: 2; word-spacing: 0px; -webkit-text-stroke-width: 0px; white-space: normal; background-color: rgb(251, 251, 251); text-decoration-thickness: initial; text-decoration-style: initial; text-decoration-color: initial; float: none; display: inline !important;&quot;&gt;Greenhouse (G&lt;sub&gt;PT&lt;/sub&gt;)&lt;/span&gt;" style="text;whiteSpace=wrap;html=1;align=center;" parent="1" vertex="1">
          <mxGeometry x="379" y="508.52" width="79" height="30" as="geometry" />
        </mxCell>
        <mxCell id="z1w67Wy-0H0407wE2M5S-58" value="&lt;span style=&quot;background-color: rgb(218, 232, 252);&quot;&gt;&lt;span style=&quot;color: rgb(0, 0, 0); font-family: Helvetica; font-size: 12px; font-style: normal; font-variant-ligatures: normal; font-variant-caps: normal; font-weight: 400; letter-spacing: normal; orphans: 2; text-indent: 0px; text-transform: none; widows: 2; word-spacing: 0px; -webkit-text-stroke-width: 0px; white-space: normal; text-decoration-thickness: initial; text-decoration-style: initial; text-decoration-color: initial; float: none; display: inline !important;&quot;&gt;Greenhouse Controller (GC&lt;/span&gt;&lt;sub style=&quot;forced-color-adjust: none; color: rgb(0, 0, 0); font-family: Helvetica; font-style: normal; font-variant-ligatures: normal; font-variant-caps: normal; font-weight: 400; letter-spacing: normal; orphans: 2; text-indent: 0px; text-transform: none; widows: 2; word-spacing: 0px; -webkit-text-stroke-width: 0px; white-space: normal; text-decoration-thickness: initial; text-decoration-style: initial; text-decoration-color: initial;&quot;&gt;DT&lt;/sub&gt;&lt;span style=&quot;color: rgb(0, 0, 0); font-family: Helvetica; font-size: 12px; font-style: normal; font-variant-ligatures: normal; font-variant-caps: normal; font-weight: 400; letter-spacing: normal; orphans: 2; text-indent: 0px; text-transform: none; widows: 2; word-spacing: 0px; -webkit-text-stroke-width: 0px; white-space: normal; text-decoration-thickness: initial; text-decoration-style: initial; text-decoration-color: initial; float: none; display: inline !important;&quot;&gt;)&lt;/span&gt;&lt;/span&gt;" style="text;whiteSpace=wrap;html=1;fillColor=#dae8fc;strokeColor=#6c8ebf;align=center;" parent="1" vertex="1">
          <mxGeometry x="349" y="247" width="90" height="56" as="geometry" />
        </mxCell>
        <mxCell id="z1w67Wy-0H0407wE2M5S-59" value="&lt;span style=&quot;background-color: rgb(213, 232, 212);&quot;&gt;&lt;span style=&quot;color: rgb(0, 0, 0); font-family: Helvetica; font-size: 12px; font-style: normal; font-variant-ligatures: normal; font-variant-caps: normal; font-weight: 400; letter-spacing: normal; orphans: 2; text-indent: 0px; text-transform: none; widows: 2; word-spacing: 0px; -webkit-text-stroke-width: 0px; white-space: normal; text-decoration-thickness: initial; text-decoration-style: initial; text-decoration-color: initial; float: none; display: inline !important;&quot;&gt;Plant (P&lt;sup&gt;2&lt;/sup&gt;&lt;/span&gt;&lt;sub style=&quot;forced-color-adjust: none; color: rgb(0, 0, 0); font-family: Helvetica; font-style: normal; font-variant-ligatures: normal; font-variant-caps: normal; font-weight: 400; letter-spacing: normal; orphans: 2; text-indent: 0px; text-transform: none; widows: 2; word-spacing: 0px; -webkit-text-stroke-width: 0px; white-space: normal; text-decoration-thickness: initial; text-decoration-style: initial; text-decoration-color: initial;&quot;&gt;DT&lt;/sub&gt;&lt;span style=&quot;color: rgb(0, 0, 0); font-family: Helvetica; font-size: 12px; font-style: normal; font-variant-ligatures: normal; font-variant-caps: normal; font-weight: 400; letter-spacing: normal; orphans: 2; text-indent: 0px; text-transform: none; widows: 2; word-spacing: 0px; -webkit-text-stroke-width: 0px; white-space: normal; text-decoration-thickness: initial; text-decoration-style: initial; text-decoration-color: initial; float: none; display: inline !important;&quot;&gt;)&lt;/span&gt;&lt;/span&gt;" style="text;whiteSpace=wrap;html=1;fillColor=#D5E8D4;strokeColor=#82b366;align=center;verticalAlign=middle;" parent="1" vertex="1">
          <mxGeometry x="259" y="273" width="76" height="30" as="geometry" />
        </mxCell>
        <mxCell id="z1w67Wy-0H0407wE2M5S-60" value="" style="endArrow=classic;startArrow=classic;html=1;rounded=0;endSize=4;startSize=4;entryX=0.66;entryY=1.022;entryDx=0;entryDy=0;entryPerimeter=0;exitX=0.714;exitY=0;exitDx=0;exitDy=0;exitPerimeter=0;" parent="1" source="z1w67Wy-0H0407wE2M5S-1" target="z1w67Wy-0H0407wE2M5S-59" edge="1">
          <mxGeometry width="50" height="50" relative="1" as="geometry">
            <mxPoint x="219" y="350" as="sourcePoint" />
            <mxPoint x="217" y="310" as="targetPoint" />
          </mxGeometry>
        </mxCell>
        <mxCell id="z1w67Wy-0H0407wE2M5S-62" value="" style="endArrow=none;dashed=1;html=1;rounded=0;" parent="1" edge="1">
          <mxGeometry width="50" height="50" relative="1" as="geometry">
            <mxPoint x="150" y="335" as="sourcePoint" />
            <mxPoint x="480" y="335" as="targetPoint" />
          </mxGeometry>
        </mxCell>
        <mxCell id="z1w67Wy-0H0407wE2M5S-63" value="Digital" style="text;whiteSpace=wrap;html=1;align=center;" parent="1" vertex="1">
          <mxGeometry x="480" y="290" width="61.2" height="30" as="geometry" />
        </mxCell>
        <mxCell id="z1w67Wy-0H0407wE2M5S-64" value="Physical" style="text;whiteSpace=wrap;html=1;align=center;" parent="1" vertex="1">
          <mxGeometry x="480" y="337" width="61.2" height="30" as="geometry" />
        </mxCell>
        <mxCell id="z1w67Wy-0H0407wE2M5S-65" value="" style="endArrow=classic;startArrow=none;html=1;rounded=0;endSize=4;startSize=4;entryX=0.5;entryY=1;entryDx=0;entryDy=0;startFill=0;" parent="1" edge="1">
          <mxGeometry width="50" height="50" relative="1" as="geometry">
            <mxPoint x="468" y="320" as="sourcePoint" />
            <mxPoint x="468" y="290" as="targetPoint" />
          </mxGeometry>
        </mxCell>
        <mxCell id="z1w67Wy-0H0407wE2M5S-66" value="" style="endArrow=none;startArrow=classic;html=1;rounded=0;endSize=4;startSize=4;entryX=0.5;entryY=1;entryDx=0;entryDy=0;startFill=1;endFill=0;" parent="1" edge="1">
          <mxGeometry width="50" height="50" relative="1" as="geometry">
            <mxPoint x="468" y="372" as="sourcePoint" />
            <mxPoint x="468" y="342" as="targetPoint" />
          </mxGeometry>
        </mxCell>
        <mxCell id="z1w67Wy-0H0407wE2M5S-69" value="" style="group" parent="1" vertex="1" connectable="0">
          <mxGeometry x="166.8" y="485" width="71.2" height="95" as="geometry" />
        </mxCell>
        <mxCell id="z1w67Wy-0H0407wE2M5S-38" value="" style="group" parent="z1w67Wy-0H0407wE2M5S-69" vertex="1" connectable="0">
          <mxGeometry width="70.19995743152694" height="77.03004843590156" as="geometry" />
        </mxCell>
        <mxCell id="z1w67Wy-0H0407wE2M5S-13" value="" style="rounded=1;whiteSpace=wrap;html=1;arcSize=7;fillColor=none;strokeColor=#82b366;strokeWidth=1;" parent="z1w67Wy-0H0407wE2M5S-38" vertex="1">
          <mxGeometry x="0.19697763841298868" width="70.00297979311395" height="76" as="geometry" />
        </mxCell>
        <mxCell id="z1w67Wy-0H0407wE2M5S-18" value="" style="group" parent="z1w67Wy-0H0407wE2M5S-38" vertex="1" connectable="0">
          <mxGeometry y="4" width="64.57668732142672" height="73.03004843590156" as="geometry" />
        </mxCell>
        <mxCell id="z1w67Wy-0H0407wE2M5S-16" value="" style="sketch=0;outlineConnect=0;fontColor=#232F3E;gradientColor=none;fillColor=#7AA116;strokeColor=none;dashed=0;verticalLabelPosition=bottom;verticalAlign=top;align=center;html=1;fontSize=12;fontStyle=0;aspect=fixed;pointerEvents=1;shape=mxgraph.aws4.iot_thing_temperature_humidity_sensor;" parent="z1w67Wy-0H0407wE2M5S-18" vertex="1">
          <mxGeometry x="17.19770130245495" width="17.31" height="17.31" as="geometry" />
        </mxCell>
        <mxCell id="z1w67Wy-0H0407wE2M5S-17" value="" style="shape=mxgraph.pid.pumps_-_iso.pump_(liquid);html=1;pointerEvents=1;align=center;verticalLabelPosition=bottom;verticalAlign=top;dashed=0;strokeColor=#CC0000;fillColor=none;" parent="z1w67Wy-0H0407wE2M5S-18" vertex="1">
          <mxGeometry x="35.798493076053795" y="1" width="20.400868396850353" height="17" as="geometry" />
        </mxCell>
        <mxCell id="z1w67Wy-0H0407wE2M5S-6" value="" style="verticalLabelPosition=bottom;html=1;verticalAlign=top;align=center;shape=mxgraph.floorplan.plant;rotation=15;fillColor=#d5e8d4;strokeColor=#82b366;" parent="z1w67Wy-0H0407wE2M5S-18" vertex="1">
          <mxGeometry x="5.507203677004921" y="12.259999999999991" width="51.562194830470794" height="57.07" as="geometry" />
        </mxCell>
        <mxCell id="z1w67Wy-0H0407wE2M5S-67" value="&lt;span style=&quot;color: rgb(0, 0, 0); font-family: Helvetica; font-size: 12px; font-style: normal; font-variant-ligatures: normal; font-variant-caps: normal; font-weight: 400; letter-spacing: normal; orphans: 2; text-indent: 0px; text-transform: none; widows: 2; word-spacing: 0px; -webkit-text-stroke-width: 0px; white-space: normal; background-color: rgb(251, 251, 251); text-decoration-thickness: initial; text-decoration-style: initial; text-decoration-color: initial; float: none; display: inline !important;&quot;&gt;Plant (P&lt;sup&gt;1&lt;/sup&gt;&lt;sub&gt;PT&lt;/sub&gt;)&lt;/span&gt;" style="text;whiteSpace=wrap;html=1;align=center;" parent="z1w67Wy-0H0407wE2M5S-69" vertex="1">
          <mxGeometry x="1.3070248894180951" y="72.02999999999997" width="69.89297511058192" height="22.97" as="geometry" />
        </mxCell>
        <mxCell id="z1w67Wy-0H0407wE2M5S-70" value="" style="group" parent="1" vertex="1" connectable="0">
          <mxGeometry x="243.80303074626738" y="485" width="71.19696925373262" height="95" as="geometry" />
        </mxCell>
        <mxCell id="z1w67Wy-0H0407wE2M5S-40" value="" style="rounded=1;whiteSpace=wrap;html=1;arcSize=7;fillColor=none;strokeColor=#82b366;strokeWidth=1;" parent="z1w67Wy-0H0407wE2M5S-70" vertex="1">
          <mxGeometry x="1.1969692537326182" width="70" height="76" as="geometry" />
        </mxCell>
        <mxCell id="z1w67Wy-0H0407wE2M5S-42" value="" style="sketch=0;outlineConnect=0;fontColor=#232F3E;gradientColor=none;fillColor=#7AA116;strokeColor=none;dashed=0;verticalLabelPosition=bottom;verticalAlign=top;align=center;html=1;fontSize=12;fontStyle=0;aspect=fixed;pointerEvents=1;shape=mxgraph.aws4.iot_thing_temperature_humidity_sensor;" parent="z1w67Wy-0H0407wE2M5S-70" vertex="1">
          <mxGeometry x="18.196969253732618" y="4" width="17.31" height="17.31" as="geometry" />
        </mxCell>
        <mxCell id="z1w67Wy-0H0407wE2M5S-43" value="" style="shape=mxgraph.pid.pumps_-_iso.pump_(liquid);html=1;pointerEvents=1;align=center;verticalLabelPosition=bottom;verticalAlign=top;dashed=0;strokeColor=#CC0000;fillColor=none;" parent="z1w67Wy-0H0407wE2M5S-70" vertex="1">
          <mxGeometry x="36.79696925373264" y="5" width="20.4" height="17" as="geometry" />
        </mxCell>
        <mxCell id="z1w67Wy-0H0407wE2M5S-44" value="" style="verticalLabelPosition=bottom;html=1;verticalAlign=top;align=center;shape=mxgraph.floorplan.plant;rotation=15;fillColor=#d5e8d4;strokeColor=#82b366;" parent="z1w67Wy-0H0407wE2M5S-70" vertex="1">
          <mxGeometry x="6.5069692537326205" y="16.25999999999999" width="51.56" height="57.07" as="geometry" />
        </mxCell>
        <mxCell id="z1w67Wy-0H0407wE2M5S-68" value="&lt;span style=&quot;color: rgb(0, 0, 0); font-family: Helvetica; font-size: 12px; font-style: normal; font-variant-ligatures: normal; font-variant-caps: normal; font-weight: 400; letter-spacing: normal; orphans: 2; text-indent: 0px; text-transform: none; widows: 2; word-spacing: 0px; -webkit-text-stroke-width: 0px; white-space: normal; background-color: rgb(251, 251, 251); text-decoration-thickness: initial; text-decoration-style: initial; text-decoration-color: initial; float: none; display: inline !important;&quot;&gt;Plant (P&lt;sup&gt;2&lt;/sup&gt;&lt;sub&gt;PT&lt;/sub&gt;)&lt;/span&gt;" style="text;whiteSpace=wrap;html=1;align=center;" parent="z1w67Wy-0H0407wE2M5S-70" vertex="1">
          <mxGeometry x="1.3069692537326318" y="72.02999999999997" width="69.89" height="22.97" as="geometry" />
        </mxCell>
        <mxCell id="z1w67Wy-0H0407wE2M5S-71" value="" style="sketch=0;outlineConnect=0;fontColor=#232F3E;gradientColor=none;fillColor=#7AA116;strokeColor=none;dashed=0;verticalLabelPosition=bottom;verticalAlign=top;align=center;html=1;fontSize=12;fontStyle=0;aspect=fixed;pointerEvents=1;shape=mxgraph.aws4.iot_thing_temperature_sensor;" parent="1" vertex="1">
          <mxGeometry x="319.90999999999997" y="475" width="25" height="25" as="geometry" />
        </mxCell>
        <mxCell id="z1w67Wy-0H0407wE2M5S-73" value="" style="endArrow=classic;startArrow=classic;html=1;rounded=0;endSize=4;startSize=4;entryX=0.193;entryY=0.994;entryDx=0;entryDy=0;entryPerimeter=0;" parent="1" target="z1w67Wy-0H0407wE2M5S-72" edge="1">
          <mxGeometry width="50" height="50" relative="1" as="geometry">
            <mxPoint x="195" y="350" as="sourcePoint" />
            <mxPoint x="195" y="320" as="targetPoint" />
          </mxGeometry>
        </mxCell>
        <mxCell id="z1w67Wy-0H0407wE2M5S-74" value="&lt;span style=&quot;background-color: rgb(213, 232, 212);&quot;&gt;&lt;span style=&quot;color: rgb(0, 0, 0); font-family: Helvetica; font-size: 12px; font-style: normal; font-variant-ligatures: normal; font-variant-caps: normal; font-weight: 400; letter-spacing: normal; orphans: 2; text-indent: 0px; text-transform: none; widows: 2; word-spacing: 0px; -webkit-text-stroke-width: 0px; white-space: normal; text-decoration-thickness: initial; text-decoration-style: initial; text-decoration-color: initial; float: none; display: inline !important;&quot;&gt;Plant (P&lt;sup&gt;1&lt;/sup&gt;&lt;/span&gt;&lt;sub style=&quot;forced-color-adjust: none; color: rgb(0, 0, 0); font-family: Helvetica; font-style: normal; font-variant-ligatures: normal; font-variant-caps: normal; font-weight: 400; letter-spacing: normal; orphans: 2; text-indent: 0px; text-transform: none; widows: 2; word-spacing: 0px; -webkit-text-stroke-width: 0px; white-space: normal; text-decoration-thickness: initial; text-decoration-style: initial; text-decoration-color: initial;&quot;&gt;DT&lt;/sub&gt;&lt;span style=&quot;color: rgb(0, 0, 0); font-family: Helvetica; font-size: 12px; font-style: normal; font-variant-ligatures: normal; font-variant-caps: normal; font-weight: 400; letter-spacing: normal; orphans: 2; text-indent: 0px; text-transform: none; widows: 2; word-spacing: 0px; -webkit-text-stroke-width: 0px; white-space: normal; text-decoration-thickness: initial; text-decoration-style: initial; text-decoration-color: initial; float: none; display: inline !important;&quot;&gt;)&lt;/span&gt;&lt;/span&gt;" style="text;whiteSpace=wrap;html=1;fillColor=#D5E8D4;strokeColor=#82b366;align=center;verticalAlign=middle;" parent="1" vertex="1">
          <mxGeometry x="181" y="273" width="76" height="30" as="geometry" />
        </mxCell>
        <mxCell id="z1w67Wy-0H0407wE2M5S-75" value="" style="endArrow=classic;startArrow=classic;html=1;rounded=0;endSize=4;startSize=4;entryX=0.5;entryY=1;entryDx=0;entryDy=0;" parent="1" target="z1w67Wy-0H0407wE2M5S-74" edge="1">
          <mxGeometry width="50" height="50" relative="1" as="geometry">
            <mxPoint x="219" y="350" as="sourcePoint" />
            <mxPoint x="219" y="310" as="targetPoint" />
          </mxGeometry>
        </mxCell>
        <mxCell id="z1w67Wy-0H0407wE2M5S-76" style="edgeStyle=orthogonalEdgeStyle;rounded=0;orthogonalLoop=1;jettySize=auto;html=1;exitX=0.5;exitY=1;exitDx=0;exitDy=0;entryX=0.879;entryY=-0.02;entryDx=0;entryDy=0;entryPerimeter=0;startArrow=classicThin;startFill=1;flowAnimation=0;" parent="1" source="z1w67Wy-0H0407wE2M5S-58" target="z1w67Wy-0H0407wE2M5S-1" edge="1">
          <mxGeometry relative="1" as="geometry" />
        </mxCell>
        <mxCell id="z1w67Wy-0H0407wE2M5S-87" value="" style="group" parent="1" vertex="1" connectable="0">
          <mxGeometry x="350" y="475.62243319347374" width="22" height="23.37756680652626" as="geometry" />
        </mxCell>
        <mxCell id="z1w67Wy-0H0407wE2M5S-79" value="" style="shape=image;verticalLabelPosition=bottom;verticalAlign=top;imageAspect=0;aspect=fixed;image=data:image/svg+xml,PHN2ZyB4bWxucz0iaHR0cDovL3d3dy53My5vcmcvMjAwMC9zdmciIHdpZHRoPSIxNzkyIiBoZWlnaHQ9IjE3OTIiIHZpZXdCb3g9IjAgMCAxNzkyIDE3OTIiPjxwYXRoIGQ9Ik04MzIgMzUydjEwODhxMCAyNi0xOSA0NXQtNDUgMTktNDUtMTlsLTMzMy0zMzNoLTI2MnEtMjYgMC00NS0xOXQtMTktNDV2LTM4NHEwLTI2IDE5LTQ1dDQ1LTE5aDI2MmwzMzMtMzMzcTE5LTE5IDQ1LTE5dDQ1IDE5IDE5IDQ1em0zODQgNTQ0cTAgNzYtNDIuNSAxNDEuNXQtMTEyLjUgOTMuNXEtMTAgNS0yNSA1LTI2IDAtNDUtMTguNXQtMTktNDUuNXEwLTIxIDEyLTM1LjV0MjktMjUgMzQtMjMgMjktMzUuNSAxMi01Ny0xMi01Ny0yOS0zNS41LTM0LTIzLTI5LTI1LTEyLTM1LjVxMC0yNyAxOS00NS41dDQ1LTE4LjVxMTUgMCAyNSA1IDcwIDI3IDExMi41IDkzdDQyLjUgMTQyem0yNTYgMHEwIDE1My04NSAyODIuNXQtMjI1IDE4OC41cS0xMyA1LTI1IDUtMjcgMC00Ni0xOXQtMTktNDVxMC0zOSAzOS01OSA1Ni0yOSA3Ni00NCA3NC01NCAxMTUuNS0xMzUuNXQ0MS41LTE3My41LTQxLjUtMTczLjUtMTE1LjUtMTM1LjVxLTIwLTE1LTc2LTQ0LTM5LTIwLTM5LTU5IDAtMjYgMTktNDV0NDUtMTlxMTMgMCAyNiA1IDE0MCA1OSAyMjUgMTg4LjV0ODUgMjgyLjV6bTI1NiAwcTAgMjMwLTEyNyA0MjIuNXQtMzM4IDI4My41cS0xMyA1LTI2IDUtMjYgMC00NS0xOXQtMTktNDVxMC0zNiAzOS01OSA3LTQgMjIuNS0xMC41dDIyLjUtMTAuNXE0Ni0yNSA4Mi01MSAxMjMtOTEgMTkyLTIyN3Q2OS0yODktNjktMjg5LTE5Mi0yMjdxLTM2LTI2LTgyLTUxLTctNC0yMi41LTEwLjV0LTIyLjUtMTAuNXEtMzktMjMtMzktNTkgMC0yNiAxOS00NXQ0NS0xOXExMyAwIDI2IDUgMjExIDkxIDMzOCAyODMuNXQxMjcgNDIyLjV6Ii8+PC9zdmc+;rotation=90;clipPath=inset(8.33% 1% 7.33% 50.33%);strokeWidth=0;imageBackground=none;opacity=70;" parent="z1w67Wy-0H0407wE2M5S-87" vertex="1">
          <mxGeometry x="5.058333333333337" y="-4.449999999999989" width="12.1" height="21" as="geometry" />
        </mxCell>
        <mxCell id="z1w67Wy-0H0407wE2M5S-86" value="" style="shape=datastore;whiteSpace=wrap;html=1;" parent="z1w67Wy-0H0407wE2M5S-87" vertex="1">
          <mxGeometry y="14.37756680652626" width="22" height="10" as="geometry" />
        </mxCell>
        <mxCell id="z1w67Wy-0H0407wE2M5S-88" value="sensors" style="text;whiteSpace=wrap;html=1;align=center;" parent="1" vertex="1">
          <mxGeometry x="321" y="497" width="51" height="22.97" as="geometry" />
        </mxCell>
      </root>
    </mxGraphModel>
  </diagram>
</mxfile>
